G04 #@! TF.FileFunction,Copper,L2,Bot,Signal*
%FSLAX46Y46*%
G04 Gerber Fmt 4.6, Leading zero omitted, Abs format (unit mm)*
G04 Created by KiCad (PCBNEW 4.0.2-1.fc23-product) date Thu 19 Jan 2017 11:12:18 AM CST*
%MOMM*%
G01*
G04 APERTURE LIST*
%ADD10C,0.100000*%
%ADD11R,1.397000X1.397000*%
%ADD12C,1.397000*%
%ADD13R,1.600000X1.500000*%
%ADD14C,1.016000*%
%ADD15R,1.016000X1.016000*%
%ADD16C,2.286000*%
%ADD17C,0.250000*%
%ADD18C,0.254000*%
G04 APERTURE END LIST*
D10*
D11*
X60264040Y-68580000D03*
D12*
X60385960Y-71120000D03*
X60264040Y-73660000D03*
D13*
X81945000Y-71120000D03*
X79345000Y-71120000D03*
D14*
X70100000Y-71120000D03*
X68600000Y-72390000D03*
X68600000Y-69850000D03*
X83800000Y-69850000D03*
D15*
X83800000Y-72390000D03*
D16*
X76200000Y-71120000D03*
D17*
X81945000Y-71120000D02*
X82530000Y-71120000D01*
X82530000Y-71120000D02*
X83800000Y-69850000D01*
D18*
G36*
X58967383Y-67633735D02*
X58918100Y-67881500D01*
X58918100Y-69278500D01*
X58967383Y-69526265D01*
X59107731Y-69736309D01*
X59317775Y-69876657D01*
X59565540Y-69925940D01*
X59783844Y-69925940D01*
X59631580Y-69988854D01*
X59256133Y-70363647D01*
X59052692Y-70853587D01*
X59052229Y-71384086D01*
X59254814Y-71874380D01*
X59629607Y-72249827D01*
X59890193Y-72358032D01*
X59571111Y-72490200D01*
X59509457Y-72725812D01*
X60264040Y-73480395D01*
X61018623Y-72725812D01*
X60956969Y-72490200D01*
X60743566Y-72415089D01*
X61140340Y-72251146D01*
X61148445Y-72243055D01*
X67443909Y-72243055D01*
X67475678Y-72696657D01*
X67588144Y-72968176D01*
X67804081Y-73006314D01*
X68420395Y-72390000D01*
X67804081Y-71773686D01*
X67588144Y-71811824D01*
X67443909Y-72243055D01*
X61148445Y-72243055D01*
X61515787Y-71876353D01*
X61719228Y-71386413D01*
X61719691Y-70855914D01*
X61517106Y-70365620D01*
X61228349Y-70076359D01*
X67456802Y-70076359D01*
X67630446Y-70496612D01*
X67951697Y-70818423D01*
X68371646Y-70992801D01*
X68826359Y-70993198D01*
X68957158Y-70939153D01*
X68956839Y-71304113D01*
X68746945Y-71233909D01*
X68293343Y-71265678D01*
X68021824Y-71378144D01*
X67983686Y-71594081D01*
X68600000Y-72210395D01*
X68614143Y-72196253D01*
X68793748Y-72375858D01*
X68779605Y-72390000D01*
X69395919Y-73006314D01*
X69611856Y-72968176D01*
X69756091Y-72536945D01*
X69732854Y-72205170D01*
X69871646Y-72262801D01*
X70326359Y-72263198D01*
X70746612Y-72089554D01*
X71068423Y-71768303D01*
X71191411Y-71472114D01*
X74421692Y-71472114D01*
X74691806Y-72125840D01*
X75191529Y-72626436D01*
X75844782Y-72897691D01*
X76552114Y-72898308D01*
X77205840Y-72628194D01*
X77706436Y-72128471D01*
X77910000Y-71638236D01*
X77910000Y-71996309D01*
X78006673Y-72229698D01*
X78185301Y-72408327D01*
X78418690Y-72505000D01*
X79059250Y-72505000D01*
X79218000Y-72346250D01*
X79218000Y-71247000D01*
X79198000Y-71247000D01*
X79198000Y-70993000D01*
X79218000Y-70993000D01*
X79218000Y-69893750D01*
X79472000Y-69893750D01*
X79472000Y-70993000D01*
X79492000Y-70993000D01*
X79492000Y-71247000D01*
X79472000Y-71247000D01*
X79472000Y-72346250D01*
X79630750Y-72505000D01*
X80271310Y-72505000D01*
X80504699Y-72408327D01*
X80646345Y-72266680D01*
X80687191Y-72327809D01*
X80897235Y-72468157D01*
X81145000Y-72517440D01*
X82644560Y-72517440D01*
X82644560Y-72898000D01*
X82693843Y-73145765D01*
X82834191Y-73355809D01*
X83044235Y-73496157D01*
X83292000Y-73545440D01*
X84308000Y-73545440D01*
X84555765Y-73496157D01*
X84765809Y-73355809D01*
X84906157Y-73145765D01*
X84955440Y-72898000D01*
X84955440Y-71882000D01*
X84906157Y-71634235D01*
X84765809Y-71424191D01*
X84555765Y-71283843D01*
X84308000Y-71234560D01*
X83490242Y-71234560D01*
X83731861Y-70992941D01*
X84026359Y-70993198D01*
X84446612Y-70819554D01*
X84768423Y-70498303D01*
X84942801Y-70078354D01*
X84943198Y-69623641D01*
X84769554Y-69203388D01*
X84448303Y-68881577D01*
X84028354Y-68707199D01*
X83573641Y-68706802D01*
X83153388Y-68880446D01*
X82831577Y-69201697D01*
X82657199Y-69621646D01*
X82657111Y-69722560D01*
X81145000Y-69722560D01*
X80897235Y-69771843D01*
X80687191Y-69912191D01*
X80646345Y-69973320D01*
X80504699Y-69831673D01*
X80271310Y-69735000D01*
X79630750Y-69735000D01*
X79472000Y-69893750D01*
X79218000Y-69893750D01*
X79059250Y-69735000D01*
X78418690Y-69735000D01*
X78185301Y-69831673D01*
X78006673Y-70010302D01*
X77910000Y-70243691D01*
X77910000Y-70602568D01*
X77708194Y-70114160D01*
X77208471Y-69613564D01*
X76555218Y-69342309D01*
X75847886Y-69341692D01*
X75194160Y-69611806D01*
X74693564Y-70111529D01*
X74422309Y-70764782D01*
X74421692Y-71472114D01*
X71191411Y-71472114D01*
X71242801Y-71348354D01*
X71243198Y-70893641D01*
X71069554Y-70473388D01*
X70748303Y-70151577D01*
X70328354Y-69977199D01*
X69873641Y-69976802D01*
X69742842Y-70030847D01*
X69743198Y-69623641D01*
X69569554Y-69203388D01*
X69248303Y-68881577D01*
X68828354Y-68707199D01*
X68373641Y-68706802D01*
X67953388Y-68880446D01*
X67631577Y-69201697D01*
X67457199Y-69621646D01*
X67456802Y-70076359D01*
X61228349Y-70076359D01*
X61142313Y-69990173D01*
X60979499Y-69922567D01*
X61210305Y-69876657D01*
X61420349Y-69736309D01*
X61560697Y-69526265D01*
X61609980Y-69278500D01*
X61609980Y-67881500D01*
X61560697Y-67633735D01*
X61429242Y-67437000D01*
X85598000Y-67437000D01*
X85598000Y-74803000D01*
X60963982Y-74803000D01*
X61018623Y-74594188D01*
X60264040Y-73839605D01*
X59509457Y-74594188D01*
X59564098Y-74803000D01*
X57912000Y-74803000D01*
X57912000Y-73467480D01*
X58918113Y-73467480D01*
X58946892Y-73997199D01*
X59094240Y-74352929D01*
X59329852Y-74414583D01*
X60084435Y-73660000D01*
X60443645Y-73660000D01*
X61198228Y-74414583D01*
X61433840Y-74352929D01*
X61609967Y-73852520D01*
X61581188Y-73322801D01*
X61524490Y-73185919D01*
X67983686Y-73185919D01*
X68021824Y-73401856D01*
X68453055Y-73546091D01*
X68906657Y-73514322D01*
X69178176Y-73401856D01*
X69216314Y-73185919D01*
X68600000Y-72569605D01*
X67983686Y-73185919D01*
X61524490Y-73185919D01*
X61433840Y-72967071D01*
X61198228Y-72905417D01*
X60443645Y-73660000D01*
X60084435Y-73660000D01*
X59329852Y-72905417D01*
X59094240Y-72967071D01*
X58918113Y-73467480D01*
X57912000Y-73467480D01*
X57912000Y-67437000D01*
X59098838Y-67437000D01*
X58967383Y-67633735D01*
X58967383Y-67633735D01*
G37*
X58967383Y-67633735D02*
X58918100Y-67881500D01*
X58918100Y-69278500D01*
X58967383Y-69526265D01*
X59107731Y-69736309D01*
X59317775Y-69876657D01*
X59565540Y-69925940D01*
X59783844Y-69925940D01*
X59631580Y-69988854D01*
X59256133Y-70363647D01*
X59052692Y-70853587D01*
X59052229Y-71384086D01*
X59254814Y-71874380D01*
X59629607Y-72249827D01*
X59890193Y-72358032D01*
X59571111Y-72490200D01*
X59509457Y-72725812D01*
X60264040Y-73480395D01*
X61018623Y-72725812D01*
X60956969Y-72490200D01*
X60743566Y-72415089D01*
X61140340Y-72251146D01*
X61148445Y-72243055D01*
X67443909Y-72243055D01*
X67475678Y-72696657D01*
X67588144Y-72968176D01*
X67804081Y-73006314D01*
X68420395Y-72390000D01*
X67804081Y-71773686D01*
X67588144Y-71811824D01*
X67443909Y-72243055D01*
X61148445Y-72243055D01*
X61515787Y-71876353D01*
X61719228Y-71386413D01*
X61719691Y-70855914D01*
X61517106Y-70365620D01*
X61228349Y-70076359D01*
X67456802Y-70076359D01*
X67630446Y-70496612D01*
X67951697Y-70818423D01*
X68371646Y-70992801D01*
X68826359Y-70993198D01*
X68957158Y-70939153D01*
X68956839Y-71304113D01*
X68746945Y-71233909D01*
X68293343Y-71265678D01*
X68021824Y-71378144D01*
X67983686Y-71594081D01*
X68600000Y-72210395D01*
X68614143Y-72196253D01*
X68793748Y-72375858D01*
X68779605Y-72390000D01*
X69395919Y-73006314D01*
X69611856Y-72968176D01*
X69756091Y-72536945D01*
X69732854Y-72205170D01*
X69871646Y-72262801D01*
X70326359Y-72263198D01*
X70746612Y-72089554D01*
X71068423Y-71768303D01*
X71191411Y-71472114D01*
X74421692Y-71472114D01*
X74691806Y-72125840D01*
X75191529Y-72626436D01*
X75844782Y-72897691D01*
X76552114Y-72898308D01*
X77205840Y-72628194D01*
X77706436Y-72128471D01*
X77910000Y-71638236D01*
X77910000Y-71996309D01*
X78006673Y-72229698D01*
X78185301Y-72408327D01*
X78418690Y-72505000D01*
X79059250Y-72505000D01*
X79218000Y-72346250D01*
X79218000Y-71247000D01*
X79198000Y-71247000D01*
X79198000Y-70993000D01*
X79218000Y-70993000D01*
X79218000Y-69893750D01*
X79472000Y-69893750D01*
X79472000Y-70993000D01*
X79492000Y-70993000D01*
X79492000Y-71247000D01*
X79472000Y-71247000D01*
X79472000Y-72346250D01*
X79630750Y-72505000D01*
X80271310Y-72505000D01*
X80504699Y-72408327D01*
X80646345Y-72266680D01*
X80687191Y-72327809D01*
X80897235Y-72468157D01*
X81145000Y-72517440D01*
X82644560Y-72517440D01*
X82644560Y-72898000D01*
X82693843Y-73145765D01*
X82834191Y-73355809D01*
X83044235Y-73496157D01*
X83292000Y-73545440D01*
X84308000Y-73545440D01*
X84555765Y-73496157D01*
X84765809Y-73355809D01*
X84906157Y-73145765D01*
X84955440Y-72898000D01*
X84955440Y-71882000D01*
X84906157Y-71634235D01*
X84765809Y-71424191D01*
X84555765Y-71283843D01*
X84308000Y-71234560D01*
X83490242Y-71234560D01*
X83731861Y-70992941D01*
X84026359Y-70993198D01*
X84446612Y-70819554D01*
X84768423Y-70498303D01*
X84942801Y-70078354D01*
X84943198Y-69623641D01*
X84769554Y-69203388D01*
X84448303Y-68881577D01*
X84028354Y-68707199D01*
X83573641Y-68706802D01*
X83153388Y-68880446D01*
X82831577Y-69201697D01*
X82657199Y-69621646D01*
X82657111Y-69722560D01*
X81145000Y-69722560D01*
X80897235Y-69771843D01*
X80687191Y-69912191D01*
X80646345Y-69973320D01*
X80504699Y-69831673D01*
X80271310Y-69735000D01*
X79630750Y-69735000D01*
X79472000Y-69893750D01*
X79218000Y-69893750D01*
X79059250Y-69735000D01*
X78418690Y-69735000D01*
X78185301Y-69831673D01*
X78006673Y-70010302D01*
X77910000Y-70243691D01*
X77910000Y-70602568D01*
X77708194Y-70114160D01*
X77208471Y-69613564D01*
X76555218Y-69342309D01*
X75847886Y-69341692D01*
X75194160Y-69611806D01*
X74693564Y-70111529D01*
X74422309Y-70764782D01*
X74421692Y-71472114D01*
X71191411Y-71472114D01*
X71242801Y-71348354D01*
X71243198Y-70893641D01*
X71069554Y-70473388D01*
X70748303Y-70151577D01*
X70328354Y-69977199D01*
X69873641Y-69976802D01*
X69742842Y-70030847D01*
X69743198Y-69623641D01*
X69569554Y-69203388D01*
X69248303Y-68881577D01*
X68828354Y-68707199D01*
X68373641Y-68706802D01*
X67953388Y-68880446D01*
X67631577Y-69201697D01*
X67457199Y-69621646D01*
X67456802Y-70076359D01*
X61228349Y-70076359D01*
X61142313Y-69990173D01*
X60979499Y-69922567D01*
X61210305Y-69876657D01*
X61420349Y-69736309D01*
X61560697Y-69526265D01*
X61609980Y-69278500D01*
X61609980Y-67881500D01*
X61560697Y-67633735D01*
X61429242Y-67437000D01*
X85598000Y-67437000D01*
X85598000Y-74803000D01*
X60963982Y-74803000D01*
X61018623Y-74594188D01*
X60264040Y-73839605D01*
X59509457Y-74594188D01*
X59564098Y-74803000D01*
X57912000Y-74803000D01*
X57912000Y-73467480D01*
X58918113Y-73467480D01*
X58946892Y-73997199D01*
X59094240Y-74352929D01*
X59329852Y-74414583D01*
X60084435Y-73660000D01*
X60443645Y-73660000D01*
X61198228Y-74414583D01*
X61433840Y-74352929D01*
X61609967Y-73852520D01*
X61581188Y-73322801D01*
X61524490Y-73185919D01*
X67983686Y-73185919D01*
X68021824Y-73401856D01*
X68453055Y-73546091D01*
X68906657Y-73514322D01*
X69178176Y-73401856D01*
X69216314Y-73185919D01*
X68600000Y-72569605D01*
X67983686Y-73185919D01*
X61524490Y-73185919D01*
X61433840Y-72967071D01*
X61198228Y-72905417D01*
X60443645Y-73660000D01*
X60084435Y-73660000D01*
X59329852Y-72905417D01*
X59094240Y-72967071D01*
X58918113Y-73467480D01*
X57912000Y-73467480D01*
X57912000Y-67437000D01*
X59098838Y-67437000D01*
X58967383Y-67633735D01*
M02*
