G04 #@! TF.FileFunction,Legend,Top*
%FSLAX46Y46*%
G04 Gerber Fmt 4.6, Leading zero omitted, Abs format (unit mm)*
G04 Created by KiCad (PCBNEW (2016-11-16 revision 682c15e)-master) date Thu Jan 19 08:13:47 2017*
%MOMM*%
%LPD*%
G01*
G04 APERTURE LIST*
%ADD10C,0.100000*%
%ADD11C,0.300000*%
%ADD12C,0.150000*%
%ADD13C,0.254000*%
G04 APERTURE END LIST*
D10*
D11*
X55550714Y-72910000D02*
X55407857Y-72838571D01*
X55193571Y-72838571D01*
X54979285Y-72910000D01*
X54836428Y-73052857D01*
X54765000Y-73195714D01*
X54693571Y-73481428D01*
X54693571Y-73695714D01*
X54765000Y-73981428D01*
X54836428Y-74124285D01*
X54979285Y-74267142D01*
X55193571Y-74338571D01*
X55336428Y-74338571D01*
X55550714Y-74267142D01*
X55622142Y-74195714D01*
X55622142Y-73695714D01*
X55336428Y-73695714D01*
X56265000Y-73338571D02*
X56265000Y-74338571D01*
X56265000Y-73481428D02*
X56336428Y-73410000D01*
X56479285Y-73338571D01*
X56693571Y-73338571D01*
X56836428Y-73410000D01*
X56907857Y-73552857D01*
X56907857Y-74338571D01*
X58265000Y-74338571D02*
X58265000Y-72838571D01*
X58265000Y-74267142D02*
X58122142Y-74338571D01*
X57836428Y-74338571D01*
X57693571Y-74267142D01*
X57622142Y-74195714D01*
X57550714Y-74052857D01*
X57550714Y-73624285D01*
X57622142Y-73481428D01*
X57693571Y-73410000D01*
X57836428Y-73338571D01*
X58122142Y-73338571D01*
X58265000Y-73410000D01*
X55050714Y-71727142D02*
X55265000Y-71798571D01*
X55622142Y-71798571D01*
X55765000Y-71727142D01*
X55836428Y-71655714D01*
X55907857Y-71512857D01*
X55907857Y-71370000D01*
X55836428Y-71227142D01*
X55765000Y-71155714D01*
X55622142Y-71084285D01*
X55336428Y-71012857D01*
X55193571Y-70941428D01*
X55122142Y-70870000D01*
X55050714Y-70727142D01*
X55050714Y-70584285D01*
X55122142Y-70441428D01*
X55193571Y-70370000D01*
X55336428Y-70298571D01*
X55693571Y-70298571D01*
X55907857Y-70370000D01*
X56550714Y-71798571D02*
X56550714Y-70798571D01*
X56550714Y-70298571D02*
X56479285Y-70370000D01*
X56550714Y-70441428D01*
X56622142Y-70370000D01*
X56550714Y-70298571D01*
X56550714Y-70441428D01*
X57907857Y-70798571D02*
X57907857Y-72012857D01*
X57836428Y-72155714D01*
X57765000Y-72227142D01*
X57622142Y-72298571D01*
X57407857Y-72298571D01*
X57265000Y-72227142D01*
X57907857Y-71727142D02*
X57765000Y-71798571D01*
X57479285Y-71798571D01*
X57336428Y-71727142D01*
X57265000Y-71655714D01*
X57193571Y-71512857D01*
X57193571Y-71084285D01*
X57265000Y-70941428D01*
X57336428Y-70870000D01*
X57479285Y-70798571D01*
X57765000Y-70798571D01*
X57907857Y-70870000D01*
X54657857Y-68687142D02*
X55800714Y-68687142D01*
X55229285Y-69258571D02*
X55229285Y-68115714D01*
X57229285Y-67758571D02*
X56515000Y-67758571D01*
X56443571Y-68472857D01*
X56515000Y-68401428D01*
X56657857Y-68330000D01*
X57015000Y-68330000D01*
X57157857Y-68401428D01*
X57229285Y-68472857D01*
X57300714Y-68615714D01*
X57300714Y-68972857D01*
X57229285Y-69115714D01*
X57157857Y-69187142D01*
X57015000Y-69258571D01*
X56657857Y-69258571D01*
X56515000Y-69187142D01*
X56443571Y-69115714D01*
X57800714Y-68258571D02*
X58157857Y-69258571D01*
X58515000Y-68258571D01*
D12*
X85500000Y-68620000D02*
X85500000Y-73620000D01*
X66900000Y-68620000D02*
X66900000Y-73620000D01*
X66900000Y-73620000D02*
X85500000Y-73620000D01*
X85500000Y-68620000D02*
X66900000Y-68620000D01*
D13*
X61525000Y-69920000D02*
X59125000Y-69920000D01*
X59125000Y-67520000D02*
X59125000Y-74920000D01*
X59125000Y-74920000D02*
X61325000Y-74920000D01*
X61325000Y-74920000D02*
X61525000Y-74920000D01*
X61525000Y-74920000D02*
X61525000Y-67320000D01*
X61525000Y-67320000D02*
X59125000Y-67320000D01*
X59125000Y-67320000D02*
X59125000Y-67520000D01*
D12*
X75009523Y-68372380D02*
X75009523Y-67372380D01*
X75342857Y-68086666D01*
X75676190Y-67372380D01*
X75676190Y-68372380D01*
X76009523Y-67372380D02*
X76580952Y-67372380D01*
X76295238Y-68372380D02*
X76295238Y-67372380D01*
X77438095Y-68372380D02*
X76866666Y-68372380D01*
X77152380Y-68372380D02*
X77152380Y-67372380D01*
X77057142Y-67515238D01*
X76961904Y-67610476D01*
X76866666Y-67658095D01*
X62682380Y-74398095D02*
X61682380Y-74398095D01*
X61682380Y-74017142D01*
X61730000Y-73921904D01*
X61777619Y-73874285D01*
X61872857Y-73826666D01*
X62015714Y-73826666D01*
X62110952Y-73874285D01*
X62158571Y-73921904D01*
X62206190Y-74017142D01*
X62206190Y-74398095D01*
X62682380Y-72874285D02*
X62682380Y-73445714D01*
X62682380Y-73160000D02*
X61682380Y-73160000D01*
X61825238Y-73255238D01*
X61920476Y-73350476D01*
X61968095Y-73445714D01*
X64603333Y-68302142D02*
X64555714Y-68349761D01*
X64412857Y-68397380D01*
X64317619Y-68397380D01*
X64174761Y-68349761D01*
X64079523Y-68254523D01*
X64031904Y-68159285D01*
X63984285Y-67968809D01*
X63984285Y-67825952D01*
X64031904Y-67635476D01*
X64079523Y-67540238D01*
X64174761Y-67445000D01*
X64317619Y-67397380D01*
X64412857Y-67397380D01*
X64555714Y-67445000D01*
X64603333Y-67492619D01*
X65555714Y-68397380D02*
X64984285Y-68397380D01*
X65270000Y-68397380D02*
X65270000Y-67397380D01*
X65174761Y-67540238D01*
X65079523Y-67635476D01*
X64984285Y-67683095D01*
M02*
